<mxfile host="Electron" agent="Mozilla/5.0 (Windows NT 10.0; Win64; x64) AppleWebKit/537.36 (KHTML, like Gecko) draw.io/26.2.15 Chrome/134.0.6998.205 Electron/35.2.1 Safari/537.36" version="26.2.15">
  <diagram name="Stránka-1" id="c_gzorhbXAdKZIi6kK_Y">
    <mxGraphModel dx="872" dy="666" grid="1" gridSize="10" guides="1" tooltips="1" connect="1" arrows="1" fold="1" page="1" pageScale="1" pageWidth="1169" pageHeight="1654" math="0" shadow="0">
      <root>
        <mxCell id="0" />
        <mxCell id="1" parent="0" />
        <mxCell id="Yulo0QtiUkDZcxMyJgSh-1" value="K čemu:" style="rounded=0;whiteSpace=wrap;html=1;" vertex="1" parent="1">
          <mxGeometry x="110" y="60" width="120" height="60" as="geometry" />
        </mxCell>
        <mxCell id="Yulo0QtiUkDZcxMyJgSh-2" value="Rychlost,&amp;nbsp;&amp;nbsp;" style="text;html=1;align=center;verticalAlign=middle;whiteSpace=wrap;rounded=0;" vertex="1" parent="1">
          <mxGeometry x="260" y="75" width="60" height="30" as="geometry" />
        </mxCell>
        <mxCell id="Yulo0QtiUkDZcxMyJgSh-3" value="Nosnost&amp;nbsp;" style="text;html=1;align=center;verticalAlign=middle;whiteSpace=wrap;rounded=0;" vertex="1" parent="1">
          <mxGeometry x="390" y="75" width="60" height="30" as="geometry" />
        </mxCell>
        <mxCell id="Yulo0QtiUkDZcxMyJgSh-4" value="doba letu" style="text;html=1;align=center;verticalAlign=middle;whiteSpace=wrap;rounded=0;" vertex="1" parent="1">
          <mxGeometry x="510" y="75" width="60" height="30" as="geometry" />
        </mxCell>
        <mxCell id="Yulo0QtiUkDZcxMyJgSh-5" value="hmotnost+nosnost" style="text;html=1;align=center;verticalAlign=middle;whiteSpace=wrap;rounded=0;" vertex="1" parent="1">
          <mxGeometry x="650" y="75" width="60" height="30" as="geometry" />
        </mxCell>
        <mxCell id="Yulo0QtiUkDZcxMyJgSh-7" style="edgeStyle=orthogonalEdgeStyle;rounded=0;orthogonalLoop=1;jettySize=auto;html=1;" edge="1" parent="1" source="Yulo0QtiUkDZcxMyJgSh-6">
          <mxGeometry relative="1" as="geometry">
            <mxPoint x="360" y="195" as="targetPoint" />
          </mxGeometry>
        </mxCell>
        <mxCell id="Yulo0QtiUkDZcxMyJgSh-6" value="šasí" style="text;html=1;align=center;verticalAlign=middle;whiteSpace=wrap;rounded=0;" vertex="1" parent="1">
          <mxGeometry x="150" y="180" width="60" height="30" as="geometry" />
        </mxCell>
        <mxCell id="Yulo0QtiUkDZcxMyJgSh-8" value="" style="ellipse;whiteSpace=wrap;html=1;aspect=fixed;" vertex="1" parent="1">
          <mxGeometry x="405" y="170" width="30" height="30" as="geometry" />
        </mxCell>
        <mxCell id="Yulo0QtiUkDZcxMyJgSh-10" value="" style="ellipse;whiteSpace=wrap;html=1;aspect=fixed;" vertex="1" parent="1">
          <mxGeometry x="405" y="200" width="30" height="30" as="geometry" />
        </mxCell>
        <mxCell id="Yulo0QtiUkDZcxMyJgSh-11" value="" style="ellipse;whiteSpace=wrap;html=1;aspect=fixed;" vertex="1" parent="1">
          <mxGeometry x="440" y="200" width="30" height="30" as="geometry" />
        </mxCell>
        <mxCell id="Yulo0QtiUkDZcxMyJgSh-12" value="" style="ellipse;whiteSpace=wrap;html=1;aspect=fixed;" vertex="1" parent="1">
          <mxGeometry x="440" y="170" width="30" height="30" as="geometry" />
        </mxCell>
        <mxCell id="Yulo0QtiUkDZcxMyJgSh-16" value="" style="rounded=0;whiteSpace=wrap;html=1;" vertex="1" parent="1">
          <mxGeometry x="420" y="190" width="40" height="20" as="geometry" />
        </mxCell>
        <mxCell id="Yulo0QtiUkDZcxMyJgSh-17" value="Arduino&lt;br&gt;asi UNO" style="text;html=1;align=center;verticalAlign=middle;whiteSpace=wrap;rounded=0;" vertex="1" parent="1">
          <mxGeometry x="160" y="240" width="60" height="30" as="geometry" />
        </mxCell>
        <mxCell id="Yulo0QtiUkDZcxMyJgSh-26" style="edgeStyle=orthogonalEdgeStyle;rounded=0;orthogonalLoop=1;jettySize=auto;html=1;entryX=0;entryY=0.5;entryDx=0;entryDy=0;" edge="1" parent="1" source="Yulo0QtiUkDZcxMyJgSh-18" target="Yulo0QtiUkDZcxMyJgSh-19">
          <mxGeometry relative="1" as="geometry" />
        </mxCell>
        <mxCell id="Yulo0QtiUkDZcxMyJgSh-18" value="Ř" style="whiteSpace=wrap;html=1;aspect=fixed;" vertex="1" parent="1">
          <mxGeometry x="650" y="145" width="50" height="50" as="geometry" />
        </mxCell>
        <mxCell id="Yulo0QtiUkDZcxMyJgSh-24" value="" style="edgeStyle=orthogonalEdgeStyle;rounded=0;orthogonalLoop=1;jettySize=auto;html=1;" edge="1" parent="1" source="Yulo0QtiUkDZcxMyJgSh-19" target="Yulo0QtiUkDZcxMyJgSh-20">
          <mxGeometry relative="1" as="geometry" />
        </mxCell>
        <mxCell id="Yulo0QtiUkDZcxMyJgSh-19" value="E" style="ellipse;whiteSpace=wrap;html=1;aspect=fixed;" vertex="1" parent="1">
          <mxGeometry x="750" y="150" width="40" height="40" as="geometry" />
        </mxCell>
        <mxCell id="Yulo0QtiUkDZcxMyJgSh-23" style="edgeStyle=orthogonalEdgeStyle;rounded=0;orthogonalLoop=1;jettySize=auto;html=1;entryX=1;entryY=0.5;entryDx=0;entryDy=0;" edge="1" parent="1" source="Yulo0QtiUkDZcxMyJgSh-20" target="Yulo0QtiUkDZcxMyJgSh-21">
          <mxGeometry relative="1" as="geometry">
            <mxPoint x="830" y="280" as="targetPoint" />
            <Array as="points">
              <mxPoint x="830" y="280" />
            </Array>
          </mxGeometry>
        </mxCell>
        <mxCell id="Yulo0QtiUkDZcxMyJgSh-20" value="S" style="whiteSpace=wrap;html=1;aspect=fixed;" vertex="1" parent="1">
          <mxGeometry x="810" y="200" width="40" height="40" as="geometry" />
        </mxCell>
        <mxCell id="Yulo0QtiUkDZcxMyJgSh-27" style="edgeStyle=orthogonalEdgeStyle;rounded=0;orthogonalLoop=1;jettySize=auto;html=1;entryX=0.5;entryY=1;entryDx=0;entryDy=0;" edge="1" parent="1" source="Yulo0QtiUkDZcxMyJgSh-21" target="Yulo0QtiUkDZcxMyJgSh-18">
          <mxGeometry relative="1" as="geometry" />
        </mxCell>
        <mxCell id="Yulo0QtiUkDZcxMyJgSh-21" value="M&lt;br&gt;(gyroskop)" style="whiteSpace=wrap;html=1;aspect=fixed;" vertex="1" parent="1">
          <mxGeometry x="720" y="250" width="60" height="60" as="geometry" />
        </mxCell>
        <mxCell id="Yulo0QtiUkDZcxMyJgSh-28" value="Alfa&lt;br&gt;beta&amp;nbsp;&lt;br&gt;fň&lt;br&gt;(úhly)" style="text;html=1;align=center;verticalAlign=middle;whiteSpace=wrap;rounded=0;" vertex="1" parent="1">
          <mxGeometry x="650" y="300" width="60" height="30" as="geometry" />
        </mxCell>
        <mxCell id="Yulo0QtiUkDZcxMyJgSh-29" value="c**2=n**2+d**2" style="text;html=1;align=center;verticalAlign=middle;whiteSpace=wrap;rounded=0;" vertex="1" parent="1">
          <mxGeometry x="150" y="360" width="60" height="30" as="geometry" />
        </mxCell>
        <mxCell id="Yulo0QtiUkDZcxMyJgSh-30" value="" style="endArrow=classic;html=1;rounded=0;" edge="1" parent="1">
          <mxGeometry width="50" height="50" relative="1" as="geometry">
            <mxPoint x="230" y="350" as="sourcePoint" />
            <mxPoint x="230" y="290" as="targetPoint" />
          </mxGeometry>
        </mxCell>
        <mxCell id="Yulo0QtiUkDZcxMyJgSh-31" value="n**2" style="text;html=1;align=center;verticalAlign=middle;whiteSpace=wrap;rounded=0;" vertex="1" parent="1">
          <mxGeometry x="180" y="290" width="60" height="30" as="geometry" />
        </mxCell>
        <mxCell id="Yulo0QtiUkDZcxMyJgSh-32" value="C**2" style="text;html=1;align=center;verticalAlign=middle;whiteSpace=wrap;rounded=0;" vertex="1" parent="1">
          <mxGeometry x="220" y="330" width="60" height="30" as="geometry" />
        </mxCell>
        <mxCell id="Yulo0QtiUkDZcxMyJgSh-33" value="" style="endArrow=classic;html=1;rounded=0;" edge="1" parent="1">
          <mxGeometry width="50" height="50" relative="1" as="geometry">
            <mxPoint x="290" y="350" as="sourcePoint" />
            <mxPoint x="290" y="400" as="targetPoint" />
          </mxGeometry>
        </mxCell>
        <mxCell id="Yulo0QtiUkDZcxMyJgSh-34" value="d**2" style="text;html=1;align=center;verticalAlign=middle;whiteSpace=wrap;rounded=0;" vertex="1" parent="1">
          <mxGeometry x="270" y="370" width="60" height="30" as="geometry" />
        </mxCell>
        <mxCell id="Yulo0QtiUkDZcxMyJgSh-35" value="" style="ellipse;whiteSpace=wrap;html=1;aspect=fixed;" vertex="1" parent="1">
          <mxGeometry x="410" y="400" width="30" height="30" as="geometry" />
        </mxCell>
        <mxCell id="Yulo0QtiUkDZcxMyJgSh-36" value="" style="ellipse;whiteSpace=wrap;html=1;aspect=fixed;" vertex="1" parent="1">
          <mxGeometry x="410" y="500" width="30" height="30" as="geometry" />
        </mxCell>
        <mxCell id="Yulo0QtiUkDZcxMyJgSh-37" value="" style="ellipse;whiteSpace=wrap;html=1;aspect=fixed;" vertex="1" parent="1">
          <mxGeometry x="520" y="500" width="30" height="30" as="geometry" />
        </mxCell>
        <mxCell id="Yulo0QtiUkDZcxMyJgSh-38" value="" style="ellipse;whiteSpace=wrap;html=1;aspect=fixed;" vertex="1" parent="1">
          <mxGeometry x="525" y="400" width="30" height="30" as="geometry" />
        </mxCell>
        <mxCell id="Yulo0QtiUkDZcxMyJgSh-41" style="edgeStyle=orthogonalEdgeStyle;rounded=0;orthogonalLoop=1;jettySize=auto;html=1;" edge="1" parent="1" source="Yulo0QtiUkDZcxMyJgSh-40">
          <mxGeometry relative="1" as="geometry">
            <mxPoint x="485" y="370" as="targetPoint" />
          </mxGeometry>
        </mxCell>
        <mxCell id="Yulo0QtiUkDZcxMyJgSh-40" value="" style="ellipse;whiteSpace=wrap;html=1;aspect=fixed;" vertex="1" parent="1">
          <mxGeometry x="480" y="460" width="10" height="10" as="geometry" />
        </mxCell>
        <mxCell id="Yulo0QtiUkDZcxMyJgSh-42" value="" style="endArrow=classic;html=1;rounded=0;exitX=1;exitY=0;exitDx=0;exitDy=0;" edge="1" parent="1" source="Yulo0QtiUkDZcxMyJgSh-40">
          <mxGeometry width="50" height="50" relative="1" as="geometry">
            <mxPoint x="420" y="430" as="sourcePoint" />
            <mxPoint x="530" y="360" as="targetPoint" />
          </mxGeometry>
        </mxCell>
        <mxCell id="Yulo0QtiUkDZcxMyJgSh-44" value="alfa" style="text;html=1;align=center;verticalAlign=middle;whiteSpace=wrap;rounded=0;" vertex="1" parent="1">
          <mxGeometry x="460" y="430" width="60" height="30" as="geometry" />
        </mxCell>
        <mxCell id="Yulo0QtiUkDZcxMyJgSh-45" value="F=k*f**2" style="text;html=1;align=center;verticalAlign=middle;whiteSpace=wrap;rounded=0;" vertex="1" parent="1">
          <mxGeometry x="950" y="430" width="60" height="30" as="geometry" />
        </mxCell>
        <mxCell id="Yulo0QtiUkDZcxMyJgSh-46" value="" style="endArrow=classic;html=1;rounded=0;" edge="1" parent="1">
          <mxGeometry width="50" height="50" relative="1" as="geometry">
            <mxPoint x="950" y="430" as="sourcePoint" />
            <mxPoint x="970" y="430" as="targetPoint" />
          </mxGeometry>
        </mxCell>
        <mxCell id="Yulo0QtiUkDZcxMyJgSh-47" value="" style="endArrow=none;html=1;rounded=0;" edge="1" parent="1" source="Yulo0QtiUkDZcxMyJgSh-55">
          <mxGeometry width="50" height="50" relative="1" as="geometry">
            <mxPoint x="660" y="550" as="sourcePoint" />
            <mxPoint x="870" y="460" as="targetPoint" />
          </mxGeometry>
        </mxCell>
        <mxCell id="Yulo0QtiUkDZcxMyJgSh-48" value="" style="endArrow=none;html=1;rounded=0;" edge="1" parent="1">
          <mxGeometry width="50" height="50" relative="1" as="geometry">
            <mxPoint x="730" y="460" as="sourcePoint" />
            <mxPoint x="810" y="550" as="targetPoint" />
          </mxGeometry>
        </mxCell>
        <mxCell id="Yulo0QtiUkDZcxMyJgSh-49" value="" style="endArrow=classic;html=1;rounded=0;" edge="1" parent="1">
          <mxGeometry width="50" height="50" relative="1" as="geometry">
            <mxPoint x="810" y="550" as="sourcePoint" />
            <mxPoint x="810" y="590" as="targetPoint" />
          </mxGeometry>
        </mxCell>
        <mxCell id="Yulo0QtiUkDZcxMyJgSh-50" value="M" style="text;html=1;align=center;verticalAlign=middle;whiteSpace=wrap;rounded=0;" vertex="1" parent="1">
          <mxGeometry x="800" y="560" width="60" height="30" as="geometry" />
        </mxCell>
        <mxCell id="Yulo0QtiUkDZcxMyJgSh-51" value="" style="endArrow=classic;html=1;rounded=0;" edge="1" parent="1">
          <mxGeometry width="50" height="50" relative="1" as="geometry">
            <mxPoint x="820" y="560" as="sourcePoint" />
            <mxPoint x="840" y="560" as="targetPoint" />
          </mxGeometry>
        </mxCell>
        <mxCell id="Yulo0QtiUkDZcxMyJgSh-52" value="" style="endArrow=classic;html=1;rounded=0;" edge="1" parent="1">
          <mxGeometry width="50" height="50" relative="1" as="geometry">
            <mxPoint x="810" y="500" as="sourcePoint" />
            <mxPoint x="830" y="490" as="targetPoint" />
          </mxGeometry>
        </mxCell>
        <mxCell id="Yulo0QtiUkDZcxMyJgSh-53" value="F" style="text;html=1;align=center;verticalAlign=middle;whiteSpace=wrap;rounded=0;" vertex="1" parent="1">
          <mxGeometry x="790" y="500" width="60" height="30" as="geometry" />
        </mxCell>
        <mxCell id="Yulo0QtiUkDZcxMyJgSh-56" value="" style="ellipse;whiteSpace=wrap;html=1;aspect=fixed;" vertex="1" parent="1">
          <mxGeometry x="790" y="530" width="30" height="30" as="geometry" />
        </mxCell>
        <mxCell id="Yulo0QtiUkDZcxMyJgSh-57" value="" style="ellipse;whiteSpace=wrap;html=1;aspect=fixed;" vertex="1" parent="1">
          <mxGeometry x="710" y="440" width="30" height="30" as="geometry" />
        </mxCell>
        <mxCell id="Yulo0QtiUkDZcxMyJgSh-58" value="" style="ellipse;whiteSpace=wrap;html=1;aspect=fixed;" vertex="1" parent="1">
          <mxGeometry x="635" y="540" width="30" height="30" as="geometry" />
        </mxCell>
        <mxCell id="Yulo0QtiUkDZcxMyJgSh-59" value="" style="endArrow=none;html=1;rounded=0;" edge="1" parent="1" target="Yulo0QtiUkDZcxMyJgSh-55">
          <mxGeometry width="50" height="50" relative="1" as="geometry">
            <mxPoint x="660" y="550" as="sourcePoint" />
            <mxPoint x="870" y="460" as="targetPoint" />
          </mxGeometry>
        </mxCell>
        <mxCell id="Yulo0QtiUkDZcxMyJgSh-55" value="" style="ellipse;whiteSpace=wrap;html=1;aspect=fixed;" vertex="1" parent="1">
          <mxGeometry x="860" y="440" width="30" height="30" as="geometry" />
        </mxCell>
        <mxCell id="Yulo0QtiUkDZcxMyJgSh-60" value="1" style="text;html=1;align=center;verticalAlign=middle;whiteSpace=wrap;rounded=0;" vertex="1" parent="1">
          <mxGeometry x="620" y="570" width="60" height="30" as="geometry" />
        </mxCell>
        <mxCell id="Yulo0QtiUkDZcxMyJgSh-61" value="2" style="text;html=1;align=center;verticalAlign=middle;whiteSpace=wrap;rounded=0;" vertex="1" parent="1">
          <mxGeometry x="690" y="470" width="60" height="10" as="geometry" />
        </mxCell>
        <mxCell id="Yulo0QtiUkDZcxMyJgSh-62" value="3" style="text;html=1;align=center;verticalAlign=middle;whiteSpace=wrap;rounded=0;" vertex="1" parent="1">
          <mxGeometry x="850" y="470" width="60" height="30" as="geometry" />
        </mxCell>
        <mxCell id="Yulo0QtiUkDZcxMyJgSh-63" value="4" style="text;html=1;align=center;verticalAlign=middle;whiteSpace=wrap;rounded=0;" vertex="1" parent="1">
          <mxGeometry x="750" y="550" width="60" height="30" as="geometry" />
        </mxCell>
        <mxCell id="Yulo0QtiUkDZcxMyJgSh-65" value="" style="endArrow=classic;html=1;rounded=0;" edge="1" parent="1">
          <mxGeometry width="50" height="50" relative="1" as="geometry">
            <mxPoint x="724.66" y="470" as="sourcePoint" />
            <mxPoint x="724.66" y="500" as="targetPoint" />
          </mxGeometry>
        </mxCell>
        <mxCell id="Yulo0QtiUkDZcxMyJgSh-66" value="" style="endArrow=classic;html=1;rounded=0;" edge="1" parent="1">
          <mxGeometry width="50" height="50" relative="1" as="geometry">
            <mxPoint x="874.66" y="440" as="sourcePoint" />
            <mxPoint x="874.66" y="400" as="targetPoint" />
          </mxGeometry>
        </mxCell>
        <mxCell id="Yulo0QtiUkDZcxMyJgSh-67" value="" style="endArrow=classic;html=1;rounded=0;" edge="1" parent="1">
          <mxGeometry width="50" height="50" relative="1" as="geometry">
            <mxPoint x="649.66" y="540" as="sourcePoint" />
            <mxPoint x="649.66" y="500" as="targetPoint" />
          </mxGeometry>
        </mxCell>
        <mxCell id="Yulo0QtiUkDZcxMyJgSh-68" value="u=k&lt;font style=&quot;font-size: 11px;&quot;&gt;y&lt;/font&gt;&lt;font size=&quot;1&quot; style=&quot;&quot;&gt;*F**2&lt;/font&gt;" style="text;html=1;align=center;verticalAlign=middle;whiteSpace=wrap;rounded=0;" vertex="1" parent="1">
          <mxGeometry x="960" y="490" width="60" height="30" as="geometry" />
        </mxCell>
        <mxCell id="Yulo0QtiUkDZcxMyJgSh-69" value="" style="endArrow=classic;html=1;rounded=0;" edge="1" parent="1">
          <mxGeometry width="50" height="50" relative="1" as="geometry">
            <mxPoint x="960" y="499.31" as="sourcePoint" />
            <mxPoint x="980" y="499.31" as="targetPoint" />
          </mxGeometry>
        </mxCell>
        <mxCell id="Yulo0QtiUkDZcxMyJgSh-70" value="u = F*n" style="text;html=1;align=center;verticalAlign=middle;whiteSpace=wrap;rounded=0;" vertex="1" parent="1">
          <mxGeometry x="940" y="520" width="60" height="30" as="geometry" />
        </mxCell>
        <mxCell id="Yulo0QtiUkDZcxMyJgSh-71" value="" style="endArrow=classic;html=1;rounded=0;" edge="1" parent="1">
          <mxGeometry width="50" height="50" relative="1" as="geometry">
            <mxPoint x="940" y="529.31" as="sourcePoint" />
            <mxPoint x="960" y="529.31" as="targetPoint" />
          </mxGeometry>
        </mxCell>
        <mxCell id="Yulo0QtiUkDZcxMyJgSh-72" value="" style="endArrow=classic;html=1;rounded=0;" edge="1" parent="1">
          <mxGeometry width="50" height="50" relative="1" as="geometry">
            <mxPoint x="960" y="529.31" as="sourcePoint" />
            <mxPoint x="980" y="529.31" as="targetPoint" />
          </mxGeometry>
        </mxCell>
        <mxCell id="Yulo0QtiUkDZcxMyJgSh-75" value="" style="endArrow=classic;html=1;rounded=0;" edge="1" parent="1">
          <mxGeometry width="50" height="50" relative="1" as="geometry">
            <mxPoint x="1070" y="720" as="sourcePoint" />
            <mxPoint x="1070" y="660" as="targetPoint" />
          </mxGeometry>
        </mxCell>
        <mxCell id="Yulo0QtiUkDZcxMyJgSh-76" value="" style="endArrow=classic;html=1;rounded=0;" edge="1" parent="1">
          <mxGeometry width="50" height="50" relative="1" as="geometry">
            <mxPoint x="1070" y="720" as="sourcePoint" />
            <mxPoint x="940" y="720" as="targetPoint" />
          </mxGeometry>
        </mxCell>
        <mxCell id="Yulo0QtiUkDZcxMyJgSh-77" value="F" style="text;html=1;align=center;verticalAlign=middle;whiteSpace=wrap;rounded=0;" vertex="1" parent="1">
          <mxGeometry x="1060" y="680" width="60" height="30" as="geometry" />
        </mxCell>
        <mxCell id="Yulo0QtiUkDZcxMyJgSh-78" value="" style="endArrow=classic;html=1;rounded=0;" edge="1" parent="1">
          <mxGeometry width="50" height="50" relative="1" as="geometry">
            <mxPoint x="1080" y="680" as="sourcePoint" />
            <mxPoint x="1100" y="680" as="targetPoint" />
          </mxGeometry>
        </mxCell>
        <mxCell id="Yulo0QtiUkDZcxMyJgSh-79" value="n" style="text;html=1;align=center;verticalAlign=middle;whiteSpace=wrap;rounded=0;" vertex="1" parent="1">
          <mxGeometry x="980" y="720" width="60" height="30" as="geometry" />
        </mxCell>
        <mxCell id="Yulo0QtiUkDZcxMyJgSh-80" value="" style="curved=1;endArrow=classic;html=1;rounded=0;" edge="1" parent="1">
          <mxGeometry width="50" height="50" relative="1" as="geometry">
            <mxPoint x="990" y="710" as="sourcePoint" />
            <mxPoint x="810" y="640" as="targetPoint" />
            <Array as="points">
              <mxPoint x="950" y="670" />
              <mxPoint x="910" y="640" />
              <mxPoint x="870" y="640" />
              <mxPoint x="840" y="640" />
            </Array>
          </mxGeometry>
        </mxCell>
        <mxCell id="Yulo0QtiUkDZcxMyJgSh-81" value="U=u1+u3-u2-u4" style="text;html=1;align=center;verticalAlign=middle;whiteSpace=wrap;rounded=0;" vertex="1" parent="1">
          <mxGeometry x="635" y="680" width="110" height="30" as="geometry" />
        </mxCell>
        <mxCell id="Yulo0QtiUkDZcxMyJgSh-82" value="" style="endArrow=classic;html=1;rounded=0;" edge="1" parent="1">
          <mxGeometry width="50" height="50" relative="1" as="geometry">
            <mxPoint x="640" y="680" as="sourcePoint" />
            <mxPoint x="740" y="680" as="targetPoint" />
          </mxGeometry>
        </mxCell>
      </root>
    </mxGraphModel>
  </diagram>
</mxfile>
